<?xml version="1.0" encoding="UTF-8" standalone="no"?><!DOCTYPE svg PUBLIC "-//W3C//DTD SVG 1.1//EN" "http://www.w3.org/Graphics/SVG/1.1/DTD/svg11.dtd"><svg width="100%" height="100%" viewBox="0 0 600 600" version="1.1" xmlns="http://www.w3.org/2000/svg" xmlns:xlink="http://www.w3.org/1999/xlink" xml:space="preserve" xmlns:serif="http://www.serif.com/" style="fill-rule:evenodd;clip-rule:evenodd;stroke-linejoin:round;stroke-miterlimit:1.41421;"><rect x="0" y="0" width="600" height="600" style="fill:#00a85f;"/><g><path d="M374.983,150c41.385,0 74.984,33.599 74.984,74.983c0,20.531 0.033,75.017 0.033,75.017c0,0 -54.163,-0.033 -75.017,-0.033c-41.384,0 -74.983,-33.599 -74.983,-74.984c0,-41.384 33.599,-74.983 74.983,-74.983Z" style="fill:#ffd500;"/><path d="M375,300.002l0,-0.002c41.041,-0.742 75,33.99 75,75c0,41.01 -33.615,75 -75,75l0,0l0,0l-149.983,0c0,0 -0.101,0 -0.101,0l0,0c-41.339,-0.055 -74.883,-33.633 -74.883,-74.983c0,-20.531 -0.033,-75.017 -0.033,-75.017c0,0 54.073,0.033 75,0.033l-0.084,-0.033l75.159,0l-0.075,0l75,0l0,0.002Z" style="fill:#ffd500;"/></g></svg>