<svg class="blog-logo" width="300" height="100"><defs><pattern id="rough-4170480606302891" x="0" y="0" width="1" height="1" viewBox="0 0 80 69" patternUnits="objectBoundingBox"><path d="M14.580263622400834 -0.06238525574621132 C9.226845956097115 6.84051325286795, 4.656252019310379 11.976148098305794, 0.3414416619166229 17.423658881879916 M14.486726188742955 -0.3635339363046931 C9.059833082444888 6.603444550430797, 3.788736332536928 12.886501822115253, -0.33035210656258956 17.397562106917103 M30.840323658046362 -0.45428145899365535 C23.182747330013726 8.74053719560281, 13.383213159352037 19.05718970610936, 0.06106302176866117 35.16217219994756 M31.09387700532304 -0.1504084455275327 C23.5985156447852 8.888395367699763, 15.34470816968279 17.60094076259678, -0.0026009291178947795 35.81862074221918 M45.85390475823631 0.2509322224657124 C29.61850955260448 21.336407880270126, 11.474161688597114 40.1023047982513, 0.3794611864517678 53.45286985440534 M46.90709607923578 0.06680915733039848 C30.611179227696628 18.35768731243349, 15.440505690359277 36.074790335845606, -0.2747281225369487 53.8389204902752 M63.47656337971467 -0.7388346699650002 C48.44522748535801 15.858227265900826, 34.46813403782592 31.878818670009426, 1.4522824068882978 70.09938700209253 M62.65819983884684 0.3357796781763494 C46.84999849683491 17.96417728949327, 30.66479101774721 36.58034831166512, 2.5343154329433917 69.70987147862624 M77.58581474967097 0.27892398718150824 C54.39471254156641 27.2955383878957, 31.28758581110537 54.11817318368266, 18.088955542958853 69.0044650041932 M78.54338862993653 0.03242023193272111 C66.02838982028136 14.20560954288871, 53.125511130047755 29.032230809948395, 18.197030679316303 69.60970638650068 M79.37096257366967 17.0369315098257 C68.3461406724126 30.049651077041812, 57.39177423970653 42.96318680552988, 34.190444710951326 69.65569889353851 M79.83180442549256 16.633788070089153 C69.44772674423317 29.081393190213465, 58.48256961657026 40.643427336600475, 34.25227121364084 69.02036384203579 M79.40014214853792 34.53894244740179 C74.27745874836609 41.45695926216768, 67.52442563710916 49.6318261068168, 50.52541464615146 68.66099882122434 M79.75716963451366 34.539643841077485 C69.41875551315184 47.3409883086838, 58.22732903878137 59.98641705166556, 50.138332122934024 69.12153141225792 M80.52613185821211 53.6111348427701 C76.61080702649932 57.03383650132806, 72.53736802736404 60.85504790983365, 66.60598590434122 68.68479936109641 M80.05650247000747 52.644905592110156 C74.93545984647629 58.98968854429433, 70.46297887994028 64.55634927794706, 65.58539909737777 69.26352817696007" style="stroke: rgb(255, 217, 54); stroke-width: 3; fill: none;"></path></pattern></defs><g><path d="M58.830439221370106 15.075278791551495 C49.684360208540575 25.14525149297474, 42.354536383633906 33.838020853429924, 20.419272028766056 58.42519461403621 M58.130575132137714 15.491032628321976 C45.852716010146295 29.145573829932665, 33.23677145337109 43.28828553326858, 21.05876738348011 58.48915103098701 M72.63077243602078 18.30000761341082 C62.2903371180181 30.570813919093347, 49.5945390365719 42.229333807204995, 24.415234825075334 71.32970762041883 M72.13038963766701 17.415056049804594 C58.78630538129786 33.44623972307311, 44.69749931948911 50.406735465974855, 25.250751322016356 72.42631699812812 M83.21252548368562 23.19384161162219 C65.124364913155 44.63176815645198, 46.03621746002248 65.90864354170428, 32.186671415481555 82.62602869058364 M83.73135259985257 22.860846361536602 C67.87731500145334 40.56931861718571, 53.50602318268501 57.41952840459233, 31.79876300476692 82.77977226293281 M91.2896373532827 31.110348327801294 C75.40334522814712 51.158523535746205, 59.63857817757791 68.78406183519913, 40.925638183749484 89.33493180371903 M91.6221651196694 31.602301320129076 C78.83623539750164 46.61836122654862, 66.25557343121086 61.66267293941632, 41.2326804842164 89.36833681383733 M97.88287615814681 44.664507924519675 C86.07388110077466 55.8814340382463, 75.2834065960971 68.57008766811676, 53.21377596838654 93.23503309380442 M97.40807815150296 43.487631046479855 C83.00155346312836 60.67254693130204, 68.91776384246667 76.67445545853306, 54.05523320822156 93.92426176941288 M98.04552583161612 60.39792086901757 C87.1809086560304 73.82302920856742, 78.05346566977667 84.44166117612212, 70.20046566872918 94.0545964014643 M98.32740902880417 60.47881228027856 C90.90995645887482 68.95006619408973, 83.41479870277247 78.22991132200094, 69.9157138123994 93.4721188051658" style="stroke: rgb(255, 46, 136); stroke-width: 3; fill: none;"></path><path d="M57.18369885791287 15.180210698244196 C65.02854375489237 14.127287680464393, 76.17010340767305 17.926792583558843, 82.94275693700638 22.88511143140341 C89.7154104663397 27.843430279247976, 95.81630456726705 36.77028104409787, 97.81962003391281 44.93012378531159 C99.82293550055857 53.0899665265253, 98.68875593509016 64.16909214136463, 94.9626497368809 71.84416787868571 C91.23654353867165 79.51924361600679, 83.038715397043 87.35041178446409, 75.46298284465729 90.98057820923805 C67.88725029227157 94.61074463401201, 57.43843391169419 95.8435570885794, 49.50825442256664 93.62516642732948 C41.57807493343908 91.40677576607955, 32.626939492276456 84.803403382883, 27.88190590989195 77.6702342417385 C23.136872327507447 70.53706510059399, 20.229249233481767 59.429310614806, 21.038052928259603 50.8261515804624 C21.84685662303744 42.2229925461188, 26.61341517353664 32.00242514925349, 32.73472807855897 26.05128003567692 C38.85604098358131 20.100134922100356, 53.42437737102531 16.841718573733807, 57.765930358393604 15.119280899003002 C62.1074833457619 13.396843224272196, 58.7445418374997 15.081855695563922, 58.78404600276873 15.71665398729209 M64.69671957245886 15.762511393565461 C72.59237380918428 16.28851119511404, 82.30409583862121 22.2430400690115, 87.87659038284303 28.348582224354942 C93.44908492706486 34.454124379698385, 97.59907856877484 44.03029773945805, 98.13168683778983 52.39576432562612 C98.66429510680481 60.761230911794186, 95.88422245188679 71.60780111175679, 91.07223999693298 78.54138174136335 C86.26025754197917 85.47496237096992, 77.45440701611818 92.03496428331735, 69.259792108067 93.99724810326553 C61.06517720001582 95.95953192321372, 49.44966961035322 94.2018425603752, 41.90455054862588 90.31508466105242 C34.359431486898536 86.42832676172965, 27.227583622228305 78.49319206261048, 23.989077737702964 70.67670070732892 C20.75057185317762 62.86020935204736, 19.91289337602092 51.58887154350633, 22.47351524147382 43.4161365293631 C25.034137106926718 35.24340151521987, 32.38960326907799 26.381577944831353, 39.352808930420345 21.640290622469557 C46.3160145917627 16.89900330010776, 60.0807101273936 15.754603958387031, 64.25274920952796 14.96841259519232 C68.42478829166232 14.182221231997607, 64.40338896566574 16.252785854450316, 64.38504342322653 16.923142443301288" style="stroke: rgb(17, 17, 17); stroke-width: 3; fill: none;"></path></g><g><path d="M155,20.71 L115,90 L195,90" style="stroke: none; stroke-width: 0; fill: url(&quot;#rough-4170480606302891&quot;);"></path><path d="M155.7111707773817 20.990214805998225 C143.68213406511123 39.36953648148841, 132.40724438060633 59.23017337821693, 114.3308227697517 89.46667379986245 M155.38961539004907 21.105793327136215 C145.57156272766937 37.000937378629466, 135.55490979579423 53.50578858668505, 115.2759161416577 90.31604376865702 M115.38264682940176 89.18137346777239 C132.50217581829762 89.27624696793897, 149.8509754762017 90.29671548159742, 194.5501432398869 89.29376175232201 M114.90618182998432 90.33905094585008 C132.96110166857864 89.87108335006205, 151.74864751463622 90.4084230292188, 195.11738274935155 90.33253881779802 M194.90379872374925 89.2939333671611 C185.45083635619795 72.9832601807467, 176.12581250560285 56.86582585987756, 155.40999223811423 20.638216181333654 M195.34280504596208 89.82310289958492 C186.81018351368638 74.79409380807833, 177.76468457696876 59.09955189379778, 154.743408434731 21.13358142637487" style="stroke: rgb(17, 17, 17); stroke-width: 3; fill: none;"></path></g><g><path d="M233.9503459740797 20.229294348292456 C229.705134823546 24.509368633909776, 226.62074594560337 29.1769034392194, 219.214136619552 36.93130777895568 M234.23675122491088 19.86345183804944 C230.22941103245086 24.72005614974743, 226.7380555591318 29.809075581537048, 220.08179911508924 36.5447966824748 M250.76518763658692 20.636948912235454 C240.74425733131338 30.7538301328666, 231.5283053831786 41.86167705654485, 220.64672044555357 54.97739742914019 M250.52507955753705 20.304889580262035 C242.3834243319861 29.457450562113113, 234.73086902880485 38.196373601313034, 220.21373231216825 55.29933290075906 M265.9764151681458 20.50213474335258 C251.02832721018905 37.96207410707467, 236.08115666568781 54.01827201681739, 220.7039954938257 72.8497438349474 M266.0318201194046 19.555492610581176 C255.03547375133698 32.23695998403269, 244.25142417196315 45.07357660923914, 220.4126703278049 73.17371861169896 M282.82242969658006 19.545413767011066 C264.77140403854395 39.97524742828612, 245.9935909833061 60.63199919386656, 222.13784435373506 89.84055415233986 M282.1010752359849 19.708298720753856 C266.9373125146862 37.505371492735335, 252.3426856111709 53.824064960471745, 221.64997489626464 90.31065215989553 M289.4294287293564 28.463636860690148 C273.222834638543 49.58490090521359, 255.52885669773096 69.87368207087827, 237.85339336920174 90.39122992469026 M289.90187060553126 29.64383395183947 C271.0484279603431 50.28994883152202, 252.58240196944388 71.79613629332326, 237.4236962203326 89.8659596569872 M290.60548929585764 47.69644165438832 C281.3351921874099 56.93797074148057, 274.400561010913 64.23015122559279, 253.681720066869 89.43969697554542 M289.9324150850906 47.978946699631926 C279.15801664497207 60.567826701221676, 268.80935208696314 72.61339876606482, 253.63046065609447 90.16810690970364 M290.7971735854993 66.25905772403382 C283.8461311347839 70.99900247973609, 280.0372754310769 77.55298706957761, 269.97977034021915 90.10060442921927 M290.3030933928757 66.30740954774821 C284.50827989838814 72.10483134318392, 278.7679617799403 78.72585800653565, 269.28925300680464 90.34643605359945 M290.3051371855547 84.27654310938668 C288.240978135319 86.0425414463631, 287.0452079061357 87.54749606071623, 284.8527535666265 90.16216023548276 M289.8834335315538 84.12241547597289 C288.5440267405331 85.69298647376215, 287.257283992639 87.41569648060005, 285.1337389439626 89.97470025748335" style="stroke: rgb(46, 110, 255); stroke-width: 3; fill: none;"></path><path d="M220.89542534236853 19.849967280158918 C233.60082786470196 18.87849371614136, 248.4033391270828 19.219362054975427, 289.83620038542534 19.810022219910596 M219.5911624091938 20.32043269920306 C246.63149352896292 20.069982173060883, 273.6349759584412 20.017308915186042, 289.533349939889 20.264241940633557 M289.8026280681987 20.70787346127355 C289.5677538747333 40.01963269919663, 289.54821202150805 59.83106498450759, 290.38480585776495 90.1703623609172 M290.22386086834024 19.664003545944276 C289.5502379095396 38.6964415192084, 290.34552852132975 57.55865247206307, 289.72020611241464 90.18893797489692 M289.87011636631235 90.88877122658111 C264.69266094007486 89.92090315552218, 239.2090322154662 90.47864729021167, 219.93475984419297 90.39818632255437 M290.364531888008 90.08573452251754 C268.87679024953627 89.82863556389691, 247.87605022202737 90.02827748346218, 220.45663328110115 89.78637206021682 M219.7150561548898 89.72529590887557 C220.31239404814252 68.22646679081423, 219.9820898015045 46.35319797738547, 219.9975750194983 20.201552511078347 M220.26670130660537 90.2284648136896 C219.4086266868105 66.27046586603262, 219.40128327643555 43.859175998607085, 219.72322463461524 20.282966977313595" style="stroke: rgb(17, 17, 17); stroke-width: 3; fill: none;"></path></g></svg>